<svg xmlns="http://www.w3.org/2000/svg" viewBox="0 0 1600 800"><g data-name="Livello 2"><path fill="#ea2853" d="M866.99 298.56L933.98 222l66.99 76.56H866.99zM599.03 298.56L666.02 222l66.99 76.56H599.03z"/><path fill="#ff4957" d="M733.01 298.56L800 222l66.99 76.56H733.01z"/><path fill="#c1304c" d="M800 222l-66.99 76.56L666.02 222H800zM933.98 222l-66.99 76.56L800 222h133.98z"/><path fill="#ff4957" d="M599.03 298.56L800 578l-66.99-279.44H599.03z"/><path fill="#c1304c" d="M1000.06 297.91L800.13 577.87l65.95-279.09 133.98-.87z"/><path fill="#ea2853" d="M733.01 298.56h133.98L800 578l-66.99-279.44z"/></g><g data-name="Livello 3"><path fill="none" stroke="#fff" stroke-miterlimit="10" stroke-width="2" d="M93.3121791 167.07887067l62.4764152 15.7045835-15.70458349 62.4764152-62.4764152-15.70458349zM1309.314573 138.07550344l62.47641521 15.70458349-15.70458349 62.4764152-62.4764152-15.70458348zM454.1102057 154.61563006l62.12193107-17.05291998 17.05291997 62.12193107-62.12193107 17.05291998zM1198.12349084 560.57457686l62.12193107-17.05291998 17.05291998 62.12193107-62.12193107 17.05291998z"/><circle cx="156" cy="287" r="17" fill="#fff"/><circle cx="201" cy="628" r="28" fill="#fff"/><circle cx="1220" cy="92" r="18" fill="#fff"/><circle cx="1324" cy="651" r="32" fill="#fff"/></g></svg>
